<?xml version="1.0" encoding="UTF-8"?>
<svg width="229px" height="50px" viewBox="0 0 229 50" version="1.1" xmlns="http://www.w3.org/2000/svg" xmlns:xlink="http://www.w3.org/1999/xlink">
    <!-- Generator: sketchtool 64 (101010) - https://sketch.com -->
    <title>74DEEBA2-0C7C-4BEC-9D3A-86321E1B2410</title>
    <desc>Created with sketchtool.</desc>
    <g id="Task" stroke="none" stroke-width="1" fill="none" fill-rule="evenodd">
        <g id="Email-_-my3d" transform="translate(-230.000000, -111.000000)" fill-rule="nonzero">
            <g id="logo-my3D-cloud-01" transform="translate(230.000000, 111.000000)">
                <path d="M94.61,38.38 L92.23,38.38 L92.23,28.52 L85.77,28.52 L85.77,38.38 L83.39,38.38 L83.39,28.52 L76.93,28.52 L76.93,38.38 L74.55,38.38 L74.55,26.48 L76.93,26.48 L76.93,28.18 L78.63,26.48 L83.39,26.48 C84.77,26.48 85.56,27.06 85.74,28.22 L87.47,26.48 L92.23,26.48 C93.5421616,26.4854788 94.6045212,27.5478384 94.61,28.86 L94.61,38.38 Z" id="Path" fill="#000000"></path>
                <path d="M111.270021,43.14 C111.272672,43.7720307 111.022781,44.378947 110.575864,44.8258643 C110.128947,45.2727815 109.522031,45.5226725 108.89,45.5200212 L99,45.5200212 L101,43.52 L108.82,43.52 L108.82,36.72 L107.12,38.42 L101.68,38.42 C100.374897,38.3872483 99.3420466,37.3052142 99.37,36 L99.37,26.48 L101.75,26.48 L101.75,36.34 L108.89,36.34 L108.89,26.48 L111.270021,26.48 L111.270021,43.14 Z" id="Path" fill="#000000"></path>
                <path d="M128.61,36 C128.604521,37.3121616 127.542162,38.3745212 126.23,38.3800212 L119.09,38.3800212 C118.457969,38.3826725 117.851053,38.1327815 117.404136,37.6858643 C116.957219,37.238947 116.707328,36.6320307 116.709979,36 L116.709979,33.62 L119.43,33.62 L119.43,36 L125.89,36 L125.89,31.24 L121.47,31.24 L121.47,29.24 L126.23,24.41 L126.23,24.1 L116.709979,24.1 L116.709979,21.72 L128.61,21.72 L128.61,25.16 L124.91,28.86 L124.91,29.2 C124.91,29.2 125.03,29.2 125.28,29.2 L125.69,29.2 C125.869765,29.1869884 126.050235,29.1869884 126.23,29.2 C126.863356,29.1875693 127.472854,29.4415267 127.91,29.9 C128.364855,30.3271791 128.618928,30.9260643 128.61,31.55 L128.61,36 Z" id="Path" fill="#000000"></path>
                <path d="M148.84,36 C148.813448,37.3032812 147.763281,38.3534484 146.46,38.38 L134.56,38.38 L134.56,26.48 L136.94,24.1 L134.56,24.1 L134.56,21.72 L146.46,21.72 C147.761115,21.7516199 148.80838,22.7988847 148.84,24.1 L148.84,36 Z M146.12,36 L146.12,24.1 L137.28,24.1 L137.28,38 L139.28,36 L146.12,36 Z" id="Shape" fill="#000000"></path>
                <polygon id="Path" fill="#000000" points="157.51 38.38 154.45 38.38 154.45 35.66 157.51 35.66"></polygon>
                <path d="M172.81,26.48 L170.74,28.48 L165,28.48 L165,36.3 L172.14,36.3 L172.14,38.3000952 L165,38.3000952 C163.710186,38.3114462 162.648046,37.2893032 162.61,36 L162.61,28.86 C162.615507,27.5439464 163.683935,26.48 165,26.48 L172.81,26.48 Z" id="Path" fill="#000000"></path>
                <polygon id="Path" fill="#000000" points="177.91 38.38 175.53 38.38 175.53 21 177.91 18.62"></polygon>
                <path d="M194.910021,36 C194.912672,36.6320307 194.662781,37.238947 194.215864,37.6858643 C193.768947,38.1327815 193.162031,38.3826725 192.53,38.3800847 L185.39,38.3800847 C184.756242,38.3853541 184.146742,38.1366476 183.697652,37.6894372 C183.248563,37.2422269 182.997303,36.6337752 182.999979,36 L182.999979,28.86 C183.005479,27.5478384 184.067838,26.4854788 185.38,26.48 L192.52,26.48 C193.832162,26.4854788 194.894521,27.5478384 194.9,28.86 L194.910021,36 Z M192.53,36.34 L192.53,28.52 L185.39,28.52 L185.39,36.34 L192.53,36.34 Z" id="Shape" fill="#000000"></path>
                <path d="M211.57,38.3800212 L209.19,38.3800212 L209.19,36.68 L207.49,38.3800212 L202.05,38.3800212 C201.417969,38.3826725 200.811053,38.1327815 200.364136,37.6858643 C199.917219,37.238947 199.667328,36.6320307 199.669979,36 L199.669979,26.48 L202.05,26.48 L202.05,36.34 L209.19,36.34 L209.19,26.48 L211.57,26.48 L211.57,38.3800212 Z" id="Path" fill="#000000"></path>
                <path d="M228.23,38.3800212 L225.85,38.3800212 L225.85,36.68 L224.15,38.3800212 L218.71,38.3800212 C218.077969,38.3826725 217.471053,38.1327815 217.024136,37.6858643 C216.577219,37.238947 216.327328,36.6320307 216.329979,36 L216.329979,28.86 C216.335479,27.5478384 217.397838,26.4854788 218.71,26.48 L225.85,26.48 L225.85,21 L228.23,18.62 L228.23,38.3800212 Z M225.85,36.38 L225.85,26.82 L224.15,28.52 L218.71,28.52 L218.71,36.34 L225.85,36.38 Z" id="Shape" fill="#000000"></path>
                <path d="M51.13,40.35 C50.7027519,40.3903261 50.2895338,40.1851545 50.0634095,39.8204149 C49.8372851,39.4556754 49.8372851,38.9943246 50.0634095,38.6295851 C50.2895338,38.2648455 50.7027519,38.0596739 51.13,38.1 C56.9510813,38.1 61.67,33.3810813 61.67,27.56 C61.67,21.7389187 56.9510813,17.02 51.13,17.02 L50.84,17.02 L49.7,17.02 L49.49,16.12 C47.5774167,8.15920969 40.4573169,2.54711252 32.27,2.54711252 C24.0826831,2.54711252 16.9625833,8.15920969 15.05,16.12 L14.83,17.02 L13.69,17.02 L13.4,17.02 C7.57891874,17.02 2.86,21.7389187 2.86,27.56 C2.86,33.3810813 7.57891874,38.1 13.4,38.1 C13.8272481,38.0596739 14.2404662,38.2648455 14.4665905,38.6295851 C14.6927149,38.9943246 14.6927149,39.4556754 14.4665905,39.8204149 C14.2404662,40.1851545 13.8272481,40.3903261 13.4,40.35 C6.46240802,40.2592807 0.862283299,34.6538179 0.778173822,27.7161426 C0.694064345,20.7784673 6.15664647,15.0388849 13.09,14.78 C15.607347,6.28923198 23.4089186,0.465013193 32.265,0.465013193 C41.1210814,0.465013193 48.922653,6.28923198 51.44,14.78 C58.3733535,15.0388849 63.8359357,20.7784673 63.7518262,27.7161426 C63.6677167,34.6538179 58.067592,40.2592807 51.13,40.35 L51.13,40.35 Z" id="Path" fill="#FFFFFF"></path>
                <path d="M46.39,28.77 L42.31,28.77 L44.31,25.23 L38.31,14.77 L26.23,14.77 L20.23,25.24 L22.23,28.77 L18.15,28.77 L12.1,39.23 L18.15,49.69 L30.23,49.69 L32.23,46.16 L34.23,49.69 L46.31,49.69 L52.31,39.23 L46.39,28.77 Z M41.1,24.11 L32.91,24.11 L28.82,17 L37,17 L41.1,24.11 Z M18.79,32.11 L22.89,39.2 L18.79,46.29 L14.7,39.23 L18.79,32.11 Z M28.93,47.41 L20.74,47.41 L24.84,40.32 L33.66,40.32 C34.240367,40.2652217 34.6838162,39.7779464 34.6838162,39.195 C34.6838162,38.6120536 34.240367,38.1247783 33.66,38.07 L24.83,38.07 L20.74,31 L26.12,31 L22.78,25.22 L26.87,18.13 L31,25.23 L26.58,32.89 C26.2772955,33.4320585 26.4640095,34.1166765 27,34.43 C27.1739165,34.5282415 27.3702544,34.5799094 27.57,34.58 C27.9802915,34.5887686 28.3630852,34.3744041 28.57,34.02 L32.99,26.36 L41.17,26.36 L38.42,31 L45.09,31 L49.18,38.08 L41,38.08 L36.56,30.41 C36.3581449,30.0634524 35.9867422,29.8509176 35.5856956,29.8524554 C35.1846491,29.8539932 34.8148872,30.0693699 34.6156956,30.4174554 C34.4165041,30.7655408 34.4181449,31.1934524 34.62,31.54 L39.05,39.21 L35,46.32 L32.32,41.66 L28.93,47.41 Z M45.09,47.41 L36.9,47.41 L41,40.32 L49.18,40.32 L45.09,47.41 Z" id="Shape" fill="#FFFFFF"></path>
            </g>
        </g>
    </g>
</svg>