<svg width="32" height="32" viewBox="0 0 32 32" fill="none" xmlns="http://www.w3.org/2000/svg">
<g clip-path="url(#clip0)">
<path d="M22.6666 28V25.3333C22.6666 23.9188 22.1047 22.5623 21.1045 21.5621C20.1043 20.5619 18.7477 20 17.3333 20H6.66658C5.2521 20 3.89554 20.5619 2.89535 21.5621C1.89516 22.5623 1.33325 23.9188 1.33325 25.3333V28" stroke="#216B78" stroke-width="2.75" stroke-linecap="round" stroke-linejoin="round"/>
<path d="M12.0001 14.6667C14.9456 14.6667 17.3334 12.2789 17.3334 9.33333C17.3334 6.38781 14.9456 4 12.0001 4C9.05456 4 6.66675 6.38781 6.66675 9.33333C6.66675 12.2789 9.05456 14.6667 12.0001 14.6667Z" stroke="#216B78" stroke-width="2.75" stroke-linecap="round" stroke-linejoin="round"/>
<path d="M30.6667 28V25.3333C30.6659 24.1516 30.2726 23.0037 29.5486 22.0698C28.8246 21.1358 27.8109 20.4688 26.6667 20.1733" stroke="#216B78" stroke-width="2.75" stroke-linecap="round" stroke-linejoin="round"/>
<path d="M25.3333 4V12" stroke="#216B78" stroke-width="2.75" stroke-linecap="round" stroke-linejoin="round"/>
<path d="M29.3333 8H21.3333" stroke="#216B78" stroke-width="2.75" stroke-linecap="round" stroke-linejoin="round"/>
</g>
<defs>
<clipPath id="clip0">
<rect width="32" height="32" fill="white"/>
</clipPath>
</defs>
</svg>
