<svg width="32" height="32" viewBox="0 0 32 32" fill="none" xmlns="http://www.w3.org/2000/svg">
<path d="M1.33337 5.3335V13.3335H9.33337" stroke="#216B78" stroke-width="2.66667" stroke-linecap="round" stroke-linejoin="round"/>
<path d="M30.6666 26.6665V18.6665H22.6666" stroke="#216B78" stroke-width="2.66667" stroke-linecap="round" stroke-linejoin="round"/>
<path d="M27.32 12.0003C26.6438 10.0893 25.4945 8.3808 23.9794 7.03415C22.4643 5.68751 20.6328 4.74662 18.6557 4.29927C16.6786 3.85193 14.6204 3.91272 12.6731 4.47596C10.7259 5.03921 8.95304 6.08655 7.52004 7.52026L1.33337 13.3336M30.6667 18.6669L24.48 24.4803C23.047 25.914 21.2742 26.9613 19.327 27.5246C17.3797 28.0878 15.3215 28.1486 13.3444 27.7013C11.3673 27.2539 9.53577 26.313 8.02066 24.9664C6.50555 23.6197 5.35626 21.9112 4.68004 20.0003" stroke="#216B78" stroke-width="2.66667" stroke-linecap="round" stroke-linejoin="round"/>
</svg>
