<svg width="32" height="32" viewBox="0 0 32 32" fill="none" xmlns="http://www.w3.org/2000/svg">
<path d="M4 8H6.66667H28" stroke="#216B78" stroke-width="2.66667" stroke-linecap="round" stroke-linejoin="round"/>
<path d="M10.6667 7.99984V5.33317C10.6667 4.62593 10.9477 3.94765 11.4478 3.44755C11.9479 2.94746 12.6262 2.6665 13.3334 2.6665H18.6667C19.374 2.6665 20.0523 2.94746 20.5524 3.44755C21.0525 3.94765 21.3334 4.62593 21.3334 5.33317V7.99984M25.3334 7.99984V26.6665C25.3334 27.3737 25.0525 28.052 24.5524 28.5521C24.0523 29.0522 23.374 29.3332 22.6667 29.3332H9.33341C8.62617 29.3332 7.94789 29.0522 7.4478 28.5521C6.9477 28.052 6.66675 27.3737 6.66675 26.6665V7.99984H25.3334Z" stroke="#216B78" stroke-width="2.66667" stroke-linecap="round" stroke-linejoin="round"/>
<path d="M13.3333 14.6665V22.6665" stroke="#216B78" stroke-width="2.66667" stroke-linecap="round" stroke-linejoin="round"/>
<path d="M18.6667 14.6665V22.6665" stroke="#216B78" stroke-width="2.66667" stroke-linecap="round" stroke-linejoin="round"/>
</svg>
