<svg width="32" height="32" viewBox="0 0 32 32" fill="none" xmlns="http://www.w3.org/2000/svg">
<path d="M14.6667 5.3335H5.33341C4.62617 5.3335 3.94789 5.61445 3.4478 6.11454C2.9477 6.61464 2.66675 7.29292 2.66675 8.00016V26.6668C2.66675 27.3741 2.9477 28.0524 3.4478 28.5524C3.94789 29.0525 4.62617 29.3335 5.33341 29.3335H24.0001C24.7073 29.3335 25.3856 29.0525 25.8857 28.5524C26.3858 28.0524 26.6667 27.3741 26.6667 26.6668V17.3335" stroke="#216B78" stroke-width="2.58333" stroke-linecap="round" stroke-linejoin="round"/>
<path d="M24.6667 3.3338C25.1972 2.80337 25.9166 2.50537 26.6667 2.50537C27.4169 2.50537 28.1363 2.80337 28.6667 3.3338C29.1972 3.86423 29.4952 4.58365 29.4952 5.3338C29.4952 6.08394 29.1972 6.80337 28.6667 7.3338L16.0001 20.0005L10.6667 21.3338L12.0001 16.0005L24.6667 3.3338Z" stroke="#216B78" stroke-width="2.58333" stroke-linecap="round" stroke-linejoin="round"/>
</svg>
