<svg width="22" height="22" viewBox="0 0 22 22" fill="none" xmlns="http://www.w3.org/2000/svg">
<mask id="path-1-inside-1" fill="white">
<path d="M0 7.98002C0 7.00298 0.792044 6.21094 1.76908 6.21094H5.9215C6.41002 6.21094 6.80604 6.60696 6.80604 7.09548V21.2288H0V7.98002Z"/>
</mask>
<path d="M0 7.98002C0 7.00298 0.792044 6.21094 1.76908 6.21094H5.9215C6.41002 6.21094 6.80604 6.60696 6.80604 7.09548V21.2288H0V7.98002Z" stroke="#333333" stroke-width="3.53816" mask="url(#path-1-inside-1)"/>
<mask id="path-2-inside-2" fill="white">
<path d="M5.20117 1.76908C5.20117 0.792044 5.99322 0 6.97025 0H14.4845C15.4615 0 16.2535 0.792043 16.2535 1.76908V20.3444C16.2535 20.8329 15.8575 21.2289 15.369 21.2289H6.08571C5.59719 21.2289 5.20117 20.8329 5.20117 20.3444V1.76908Z"/>
</mask>
<path d="M5.20117 1.76908C5.20117 0.792044 5.99322 0 6.97025 0H14.4845C15.4615 0 16.2535 0.792043 16.2535 1.76908V20.3444C16.2535 20.8329 15.8575 21.2289 15.369 21.2289H6.08571C5.59719 21.2289 5.20117 20.8329 5.20117 20.3444V1.76908Z" stroke="#333333" stroke-width="3.53816" mask="url(#path-2-inside-2)"/>
<path d="M15.4798 12.6197C15.4798 12.1311 15.8758 11.7351 16.3643 11.7351H19.4601C19.9486 11.7351 20.3446 12.1311 20.3446 12.6197V20.3442H15.4798V12.6197Z" stroke="#333333" stroke-width="1.76908"/>
<mask id="path-4-inside-3" fill="white">
<rect x="8.95752" y="14.4331" width="3.04967" height="6.03782" rx="0.884539"/>
</mask>
<rect x="8.95752" y="14.4331" width="3.04967" height="6.03782" rx="0.884539" stroke="#333333" stroke-width="3.04967" mask="url(#path-4-inside-3)"/>
</svg>
