<svg width="24" height="24" viewBox="0 0 24 24" fill="none" xmlns="http://www.w3.org/2000/svg">
<path d="M4.93335 22.2451H19.1833C20.495 22.2451 21.5583 21.3497 21.5583 20.2451V4.24512C21.5583 3.14055 20.495 2.24512 19.1833 2.24512H4.93335C3.62167 2.24512 2.55835 3.14055 2.55835 4.24512V20.2451C2.55835 21.3497 3.62167 22.2451 4.93335 22.2451Z" stroke="black" stroke-width="2" stroke-linecap="round" stroke-linejoin="round"/>
<path d="M12.0583 5.24512C9.02078 5.24512 6.55835 7.70755 6.55835 10.7451C6.55835 13.7827 9.02078 16.2451 12.0583 16.2451C15.0959 16.2451 17.5583 13.7827 17.5583 10.7451C17.5583 7.70755 15.0959 5.24512 12.0583 5.24512Z" stroke="black" stroke-width="2" stroke-linecap="round" stroke-linejoin="round"/>
<path d="M14.5583 19.2451H9.55835M12.0684 10.7451H12.0584" stroke="black" stroke-width="2" stroke-linecap="round" stroke-linejoin="round"/>
</svg>
