<svg width="32" height="32" viewBox="0 0 32 32" fill="none" xmlns="http://www.w3.org/2000/svg">
<path d="M6.57784 29.6602H25.5778C27.3267 29.6602 28.7445 28.4662 28.7445 26.9935V5.66016C28.7445 4.1874 27.3267 2.99349 25.5778 2.99349H6.57784C4.82894 2.99349 3.41117 4.1874 3.41117 5.66016V26.9935C3.41117 28.4662 4.82894 29.6602 6.57784 29.6602Z" stroke="#216B78" stroke-width="2.66667" stroke-linecap="round" stroke-linejoin="round"/>
<path d="M16.0778 6.99349C12.0277 6.99349 8.74447 10.2767 8.74447 14.3268C8.74447 18.3769 12.0277 21.6602 16.0778 21.6602C20.1279 21.6602 23.4111 18.3769 23.4111 14.3268C23.4111 10.2767 20.1279 6.99349 16.0778 6.99349Z" stroke="#216B78" stroke-width="2.66667" stroke-linecap="round" stroke-linejoin="round"/>
<path d="M19.4111 25.6602H12.7445M16.0911 14.3268H16.0778" stroke="#216B78" stroke-width="2.66667" stroke-linecap="round" stroke-linejoin="round"/>
</svg>
