<svg id="Layer_1" data-name="Layer 1" xmlns="http://www.w3.org/2000/svg" viewBox="0 0 113.39 100.36"><defs><style>.cls-1{fill:#1e2328;}.cls-2{fill:none;}</style></defs><title>ico-01</title><path class="cls-1" d="M66.49,66.5H63.16V62a.18.18,0,0,0-.18-.18H49.82a.18.18,0,0,0-.19.17h0v4.5H46.47V79h20Z" transform="translate(0 -4.57)"/><path class="cls-1" d="M76.23,96a8.18,8.18,0,0,1-.9.34l-.66.18a6.68,6.68,0,0,1-.78.18l-.84.16c-5.31.93-14,1-16.39,1s-11.08-.06-16.39-1l-.84-.16a2.86,2.86,0,0,1-.78-.18L38,96.37a8.18,8.18,0,0,1-.9-.34c-.3.16-.46.32-.46.49h0v1.69c0,1.29,9,2.34,20,2.34s20-1,20-2.34h0V96.55h0C76.69,96.35,76.52,96.19,76.23,96Z" transform="translate(0 -4.57)"/><path class="cls-1" d="M13.51,32.48a.3.3,0,0,0,.17-.24.92.92,0,0,0,0-.56c-.11-.35-.35-.58-.55-.56h0c-.2.07-.26.43-.14.81S13.31,32.55,13.51,32.48Z" transform="translate(0 -4.57)"/><path class="cls-1" d="M52.51,50.78a10.09,10.09,0,0,0,8.06,0,10.2,10.2,0,0,0,5.92-7.12,9.91,9.91,0,0,0,0-4.51,10.2,10.2,0,0,0-20,.61,9.9,9.9,0,0,0-.14,1.64,10,10,0,0,0,.14,1.65A10.22,10.22,0,0,0,52.51,50.78Zm4-18.37a8.88,8.88,0,0,1,3.1.56,1.66,1.66,0,0,0-.79.35c-1.06.85-.91,2.79.33,4.33s3.11,2.08,4.16,1.23a2.45,2.45,0,0,0,.56-2.64,9,9,0,1,1-7.36-3.83Z" transform="translate(0 -4.57)"/><path class="cls-1" d="M111,15.25l-4.54-4.46a1.75,1.75,0,0,0-1.2-.49H86.53V6a1.39,1.39,0,0,0-1.38-1.38h-.61a1.36,1.36,0,0,0-1.29.93l-1,2.83a1.38,1.38,0,0,0-.07.44v1.49H74.25a2.92,2.92,0,0,0-2.86,2.27l-1,4.88a2.59,2.59,0,0,0,0,.3v5.6l-.47-.24c-.17-.1-.35-.17-.51-.25s-.63-.32-1-.47a28.15,28.15,0,0,0-7.1-2.07,30.69,30.69,0,0,0-9.66,0,28.07,28.07,0,0,0-7.18,2.15l-1,.47h0c-.32.16-.66.32-1,.5V15.3L42,12.61a2.93,2.93,0,0,0-2.88-2.32H31.18V8.79a1.38,1.38,0,0,0-.07-.44L30.16,5.5a1.39,1.39,0,0,0-1.3-.93h-.67A1.38,1.38,0,0,0,26.82,6v4.39H8.12a1.75,1.75,0,0,0-1.2.49L2.39,15.27A8.06,8.06,0,0,0,0,21.06V90.62a6,6,0,0,0,3.65,5.5l3.83,1.61H32.69c0,.35.61.67,1.61,1v4.41a8.6,8.6,0,0,0,1,.28,56.2,56.2,0,0,0,7.67,1c1.38.11,2.89.22,4.53.29,2.7.13,5.75.22,9.11.22s6.41-.08,9.11-.22c1.64-.07,3.16-.18,4.53-.29a56.2,56.2,0,0,0,7.67-1,8.6,8.6,0,0,0,1-.28v-4.4c1-.3,1.57-.63,1.6-1H105.9l3.84-1.61a6,6,0,0,0,3.65-5.5V21A8.11,8.11,0,0,0,111,15.25ZM21.09,96.36H7.76L4.17,94.84a4.56,4.56,0,0,1-2.81-4.22V35.43a1.59,1.59,0,0,0,1.05.2l5.07-.84A1.57,1.57,0,0,0,8.8,33.25V23a1.58,1.58,0,0,0-1.58-1.57l-.25,0-5.07.83a2.06,2.06,0,0,0-.54.19V21a6.77,6.77,0,0,1,2-4.78l4.54-4.44a.36.36,0,0,1,.24-.1h13ZM2,28.88C2,26.69,3.06,25,4.42,25s2.39,1.66,2.39,3.85-1,3.85-2.39,3.85S2,31.12,2,28.88Zm41.45,27,1,.47a29.9,29.9,0,0,0,23.92.07c.33-.14.66-.31,1-.47l.51-.25.47-.24V84a1.66,1.66,0,0,1-.47,1.2,1.7,1.7,0,0,1-1.2.51H44.17a1.69,1.69,0,0,1-.69-.16,1.65,1.65,0,0,1-1-1.51V55.39c.31.18.65.33,1,.5Zm0-21.38h0a13.42,13.42,0,0,1,1-2.25A13.69,13.69,0,0,1,68.37,32a14.74,14.74,0,0,1,1.48,3.81,13.27,13.27,0,0,1-.51,7.63,13.42,13.42,0,0,1-1,2.1,13.62,13.62,0,0,1-24.89-2.48h0A13.45,13.45,0,0,1,43.48,34.48ZM112,90.68a4.57,4.57,0,0,1-2.8,4.22l-3.59,1.52H92.26V11.67H105.2a.38.38,0,0,1,.25.1L110,16.2A6.71,6.71,0,0,1,112,21v2a1.1,1.1,0,0,0-.41-.14L107,22.11a1.42,1.42,0,0,0-1.65,1.41v9.21a1.42,1.42,0,0,0,1.2,1.41l4.57.75a1.4,1.4,0,0,0,.86-.14Zm-.62-61.74c0,2.2-1,3.85-2.39,3.85s-2.39-1.65-2.39-3.85,1-3.85,2.39-3.85,2.39,1.6,2.39,3.79Z" transform="translate(0 -4.57)"/><path class="cls-1" d="M100.29,31.12c-.19,0-.43.21-.55.56a1,1,0,0,0,0,.56.32.32,0,0,0,.17.24c.21.07.47-.18.6-.55s.07-.74-.13-.81A.24.24,0,0,0,100.29,31.12Z" transform="translate(0 -4.57)"/><path class="cls-2" d="M102.24,38.2l-3.82-.63a1.19,1.19,0,0,1-1-1.18v-7.7a1.19,1.19,0,0,1,1.18-1.2l.2,0,3.82.63a.92.92,0,0,1,.34.12V26.57a5.61,5.61,0,0,0-1.69-4l-3.79-3.71a.32.32,0,0,0-.21-.08H86.45V89.56H97.6l3-1.27a3.82,3.82,0,0,0,2.4-3.53V38.08A1.17,1.17,0,0,1,102.24,38.2Z" transform="translate(0 -4.57)"/><path class="cls-2" d="M15.91,18.85l-3.8,3.71a5.66,5.66,0,0,0-1.69,4v1.21a1.72,1.72,0,0,1,.45-.16l4.24-.69a1.32,1.32,0,0,1,1.53,1.3v8.55a1.31,1.31,0,0,1-1.1,1.3l-4.24.7a1.33,1.33,0,0,1-.88-.17V84.76a3.81,3.81,0,0,0,2.35,3.53l3,1.27H26.94V18.74H16.11A.3.3,0,0,0,15.91,18.85Z" transform="translate(0 -4.57)"/></svg>