<?xml version="1.0" encoding="utf-8"?>
<!-- Generator: Adobe Illustrator 21.0.2, SVG Export Plug-In . SVG Version: 6.00 Build 0)  -->
<svg version="1.1" id="Capa_1" xmlns="http://www.w3.org/2000/svg" xmlns:xlink="http://www.w3.org/1999/xlink" x="0px" y="0px"
	 viewBox="0 0 550.8 550.8" style="enable-background:new 0 0 550.8 550.8;" xml:space="preserve">
<g>
	<path d="M488.4,197h-13.2v-63.8c0-0.4-0.1-0.8-0.1-1.2c0-2.5-0.8-5-2.6-7L366.3,3.7c0,0-0.1,0-0.1-0.1c-0.6-0.7-1.4-1.3-2.2-1.8
		c-0.2-0.2-0.5-0.3-0.7-0.4c-0.7-0.4-1.4-0.7-2.1-0.9c-0.2-0.1-0.4-0.1-0.6-0.2C359.9,0.1,359,0,358.2,0h-261
		C85.3,0,75.6,9.7,75.6,21.6V197H62.4c-17,0-30.9,13.8-30.9,30.9v160.5c0,17,13.8,30.9,30.9,30.9h13.2v109.9
		c0,11.9,9.7,21.6,21.6,21.6h356.4c11.9,0,21.6-9.7,21.6-21.6V419.3h13.2c17.1,0,30.9-13.8,30.9-30.9V227.9
		C519.3,210.8,505.5,197,488.4,197z M97.2,21.6h250.2v110.5c0,6,4.8,10.8,10.8,10.8h95.4V197H97.2L97.2,21.6L97.2,21.6z
		 M359.8,240.6l-34,131.6h-32.2l-11.1-56.6c-2.5-13.3-4.7-25.6-6.2-40.6h-0.4c-2.4,14.9-4.5,27.3-7.6,40.6l-12.5,56.6h-32.6
		l-31.3-131.6h31.8l10,54.3c2.9,15.6,5.7,32.6,7.8,45.9h0.4c2.1-14.3,5.3-30.1,8.6-46.3l11.1-53.9h31.6l10.5,55.5
		c2.9,15.4,5.1,29.5,7,44.1h0.4c1.9-14.6,4.9-30.1,7.6-45.7l10.8-53.9L359.8,240.6L359.8,240.6L359.8,240.6z M67.3,371.7V242.4
		c10.9-1.8,25.2-2.7,40.2-2.7c25,0,41.2,4.5,53.9,14.1c13.7,10.1,22.3,26.4,22.3,49.6c0,25.2-9.2,42.6-21.9,53.3
		c-13.9,11.5-35,17-60.7,17C85.6,373.6,74.7,372.7,67.3,371.7z M453.6,523.3H97.2v-104h356.4V523.3z M483.6,366.2
		c-9.2,3.1-26.5,7.4-43.9,7.4c-24,0-41.4-6.1-53.5-17.8c-12.1-11.3-18.8-28.5-18.6-47.9c0.2-43.8,32-68.7,75.2-68.7
		c17,0,30.1,3.3,36.5,6.4l-6.3,23.8c-7.2-3.1-16.2-5.7-30.7-5.7c-24.8,0-43.6,14.1-43.6,42.6c0,27.1,17,43.1,41.4,43.1
		c6.9,0,12.3-0.8,14.6-1.9v-27.5h-20.3v-23.2h49L483.6,366.2L483.6,366.2z"/>
	<path d="M152,304.3c0.2-27.3-15.8-41.8-41.4-41.8c-6.6,0-10.9,0.6-13.5,1.2v86.1c2.5,0.6,6.6,0.6,10.3,0.6
		C134.4,350.6,152,335.7,152,304.3z"/>
</g>
</svg>
