<svg width="32" height="32" viewBox="0 0 32 32" fill="none" xmlns="http://www.w3.org/2000/svg">
<path d="M4 24V16C4 12.8174 5.26428 9.76516 7.51472 7.51472C9.76516 5.26428 12.8174 4 16 4C19.1826 4 22.2348 5.26428 24.4853 7.51472C26.7357 9.76516 28 12.8174 28 16V24" stroke="#216B78" stroke-width="2.66667" stroke-linecap="round" stroke-linejoin="round"/>
<path d="M28 25.3332C28 26.0404 27.719 26.7187 27.219 27.2188C26.7189 27.7189 26.0406 27.9998 25.3333 27.9998H24C23.2928 27.9998 22.6145 27.7189 22.1144 27.2188C21.6143 26.7187 21.3333 26.0404 21.3333 25.3332V21.3332C21.3333 20.6259 21.6143 19.9476 22.1144 19.4476C22.6145 18.9475 23.2928 18.6665 24 18.6665H28V25.3332ZM4 25.3332C4 26.0404 4.28095 26.7187 4.78105 27.2188C5.28115 27.7189 5.95942 27.9998 6.66667 27.9998H8C8.70724 27.9998 9.38552 27.7189 9.88562 27.2188C10.3857 26.7187 10.6667 26.0404 10.6667 25.3332V21.3332C10.6667 20.6259 10.3857 19.9476 9.88562 19.4476C9.38552 18.9475 8.70724 18.6665 8 18.6665H4V25.3332Z" stroke="#216B78" stroke-width="2.66667" stroke-linecap="round" stroke-linejoin="round"/>
</svg>
